<?xml version="1.0" encoding="UTF-8"?>
<svg id="Layer_1" xmlns="http://www.w3.org/2000/svg" version="1.1" viewBox="0 0 563 907.2">
  <!-- Generator: Adobe Illustrator 30.1.0, SVG Export Plug-In . SVG Version: 2.1.1 Build 136)  -->
  <defs>
    <style>
      .st0 {
        fill: #f4f4f4;
      }
    </style>
  </defs>
  <path class="st0" d="M67.8,892.3c0-9.6,5.4-15,11.1-15s6.9,3,6.9,3h.3v-2.4h3.9v22.2c0,3.3.6,6.6.6,6.6h-3.9l-.3-2.7h-.3s-2.7,3.3-7.2,3.3-11.1-5.4-11.1-15h0ZM86,899.7v-15s-2.1-3.9-6.3-3.9-8.1,3.9-8.1,11.4,3.9,11.4,8.1,11.4,6.3-3.9,6.3-3.9Z"/>
  <path class="st0" d="M98.6,866.2h3.9v25.7h.3l11.7-14.1h4.5l-9.6,11.4,10.8,17.4h-4.5l-8.7-14.4-4.5,5.4v9h-3.9v-40.4h0Z"/>
  <path class="st0" d="M125,866.2h3.9v14.1h.3s2.4-3,7.2-3,8.7,3.6,8.7,9v20.4h-3.9v-19.5c0-4.2-2.1-6.3-5.7-6.3s-6.6,3.9-6.6,3.9v21.9h-3.9v-40.4h0Z"/>
  <path class="st0" d="M152,892.3c0-9.6,5.4-15,11.1-15s6.9,3,6.9,3h.3v-2.4h3.9v22.2c0,3.3.6,6.6.6,6.6h-3.9l-.3-2.7h-.3s-2.7,3.3-7.2,3.3-11.1-5.4-11.1-15h0ZM170.2,899.7v-15s-2.1-3.9-6.3-3.9-8.1,3.9-8.1,11.4,3.9,11.4,8.1,11.4,6.3-3.9,6.3-3.9Z"/>
  <path class="st0" d="M179.6,877.9h4.2l6.9,21.9h.3l6.9-21.9h4.2l-9.3,28.8h-3.9l-9.3-28.8h0Z"/>
  <path class="st0" d="M205.9,892.3c0-9.6,5.4-15,11.1-15s6.9,3,6.9,3h.3v-2.4h3.9v22.2c0,3.3.6,6.6.6,6.6h-3.9l-.3-2.7h-.3s-2.7,3.3-7.2,3.3-11.1-5.4-11.1-15h0ZM224.2,899.7v-15s-2.1-3.9-6.3-3.9-8.1,3.9-8.1,11.4,3.9,11.4,8.1,11.4,6.3-3.9,6.3-3.9Z"/>
  <path class="st0" d="M236.5,877.9h3.9v2.4h.3s2.4-3,7.2-3,8.7,3.6,8.7,9v20.4h-3.9v-19.5c0-4.2-2.1-6.3-5.7-6.3s-6.6,3.9-6.6,3.9v21.9h-3.9v-28.8h0Z"/>
  <path class="st0" d="M274.3,892.3c0-9.6,5.4-15,12.3-15s9.6,5.1,9.6,5.1l-3,2.4s-2.1-3.9-6.6-3.9-8.4,3.9-8.4,11.4,3.9,11.4,8.4,11.4,6.9-4.5,6.9-4.5l3.3,2.1s-3,6-10.2,6-12.3-5.4-12.3-15h0Z"/>
  <path class="st0" d="M300.9,892.3c0-9.6,5.4-15,12.3-15s12.3,5.4,12.3,15-5.4,15-12.3,15-12.3-5.4-12.3-15ZM321.6,892.3c0-7.5-3.9-11.4-8.4-11.4s-8.4,3.9-8.4,11.4,3.9,11.4,8.4,11.4,8.4-3.9,8.4-11.4Z"/>
  <path class="st0" d="M332.7,900.6v-34.4h3.9v34.4c0,1.5.9,2.4,2.4,2.4h.6l-.6,3.6h-.6c-3.3,0-5.7-2.4-5.7-6Z"/>
  <path class="st0" d="M346.5,900.6v-34.4h3.9v34.4c0,1.5.9,2.4,2.4,2.4h.6l-.6,3.6h-.6c-3.3,0-5.7-2.4-5.7-6Z"/>
  <path class="st0" d="M358.5,892.3c0-9.6,5.4-15,11.7-15s11.7,5.4,11.7,15v.6h-19.5c0,6.9,3.9,10.8,8.4,10.8s6.9-4.5,6.9-4.5l3.3,2.1s-3,6-10.2,6-12.3-5.4-12.3-15h0ZM377.9,889.3c-.6-5.1-3.9-8.4-7.8-8.4s-7.2,3.3-7.8,8.4h15.6,0Z"/>
  <path class="st0" d="M387.2,892.3c0-9.6,5.4-15,12.3-15s9.6,5.1,9.6,5.1l-3,2.4s-2.1-3.9-6.6-3.9-8.4,3.9-8.4,11.4,3.9,11.4,8.4,11.4,6.9-4.5,6.9-4.5l3.3,2.1s-3,6-10.2,6-12.3-5.4-12.3-15h0Z"/>
  <path class="st0" d="M416.3,900.6v-19.2h-3.6v-3.6h3.6v-11.7h3.9v11.7h4.5v3.6h-4.5v19.2c0,1.5.9,2.4,2.4,2.4h2.4l-.6,3.6h-2.4c-3.3,0-5.7-2.4-5.7-6h0Z"/>
  <path class="st0" d="M431.9,866.2h3.9v4.2h-3.9v-4.2ZM431.9,877.9h3.9v28.8h-3.9v-28.8Z"/>
  <path class="st0" d="M442.7,892.3c0-9.6,5.4-15,12.3-15s12.3,5.4,12.3,15-5.4,15-12.3,15-12.3-5.4-12.3-15ZM463.3,892.3c0-7.5-3.9-11.4-8.4-11.4s-8.4,3.9-8.4,11.4,3.9,11.4,8.4,11.4,8.4-3.9,8.4-11.4Z"/>
  <path class="st0" d="M474.1,877.9h3.9v2.4h.3s2.4-3,7.2-3,8.7,3.6,8.7,9v20.4h-3.9v-19.5c0-4.2-2.1-6.3-5.7-6.3s-6.6,3.9-6.6,3.9v21.9h-3.9v-28.8h0Z"/>
  <path class="st0" d="M285.8,779.4c-22.1-25.2-33.1-62-33.1-110.3V148.1c0-48.3,11-85,33.1-110.3C307.8,12.7,337.1,0,373.5,0s65.6,12.6,87.6,37.9c22,25.2,33.1,62,33.1,110.3v148.1h-57.9v-148.1c0-60.3-21-90.5-62.9-90.5s-62.9,30.2-62.9,90.5v521c0,60.4,20.9,90.5,62.9,90.5s62.9-30.2,62.9-90.5v-189.3h57.9v189.3c0,48.3-11,85-33.1,110.3-22.1,25.2-51.3,37.9-87.6,37.9s-65.6-12.6-87.6-37.9h0Z"/>
  <path class="st0" d="M277.5,37.9C255.5,12.6,226.3,0,189.9,0s-65.6,12.6-87.6,37.9c-22,25.2-33.1,62-33.1,110.3v148.1h57.9v-148.1c0-60.3,21-90.5,62.9-90.5s62.9,30.2,62.9,90.5v331.7H69.2v189.3c0,48.3,11,85,33.1,110.3,22.1,25.2,51.3,37.9,87.6,37.9s65.6-12.6,87.6-37.9c22.1-25.2,33.1-62,33.1-110.3V148.1c0-48.3-11-85-33.1-110.3h0ZM189.9,759.6c-41.9,0-62.9-30.2-62.9-90.5v-131.7h125.7v131.7c0,60.4-20.9,90.5-62.9,90.5Z"/>
</svg>