<?xml version="1.0" encoding="UTF-8"?><svg id="Layer_1" xmlns="http://www.w3.org/2000/svg" viewBox="0 0 1226.44 117.97"><path d="M0,74.89C0,47.32,15.51,31.81,31.88,31.81c12.06,0,19.82,8.61,19.82,8.61h.86v-6.89h11.2v63.76c0,9.48,1.72,18.96,1.72,18.96h-11.2l-.86-7.75h-.86s-7.75,9.47-20.68,9.47c-16.37,0-31.88-15.51-31.88-43.08ZM52.56,96.43v-43.08s-6.03-11.2-18.09-11.2-23.26,11.2-23.26,32.74,11.2,32.74,23.26,32.74,18.09-11.2,18.09-11.2Z"/><path d="M88.77,0h11.2v74.03h.86l33.6-40.5h12.93l-27.57,32.74,31.02,49.97h-12.93l-24.99-41.36-12.93,15.51v25.85h-11.2V0Z"/><path d="M164.62,0h11.2v40.42h.86s6.89-8.61,20.68-8.61c14.65,0,24.99,10.34,24.99,25.84v58.59h-11.2v-56c0-12.06-6.03-18.1-16.37-18.1-12.92,0-18.95,11.2-18.95,11.2v62.9h-11.2V0Z"/><path d="M242.19,74.89c0-27.57,15.51-43.08,31.88-43.08,12.06,0,19.81,8.61,19.81,8.61h.86v-6.89h11.2v63.76c0,9.48,1.72,18.96,1.72,18.96h-11.2l-.86-7.75h-.86s-7.76,9.47-20.68,9.47c-16.37,0-31.88-15.51-31.88-43.08ZM294.75,96.43v-43.08s-6.03-11.2-18.1-11.2-23.26,11.2-23.26,32.74,11.2,32.74,23.26,32.74,18.1-11.2,18.1-11.2Z"/><path d="M321.48,33.53h12.06l19.82,62.9h.86l19.82-62.9h12.06l-26.71,82.72h-11.2l-26.71-82.72Z"/><path d="M397.33,74.89c0-27.57,15.51-43.08,31.88-43.08,12.06,0,19.81,8.61,19.81,8.61h.86v-6.89h11.2v63.76c0,9.48,1.72,18.96,1.72,18.96h-11.2l-.86-7.75h-.86s-7.76,9.47-20.68,9.47c-16.37,0-31.88-15.51-31.88-43.08ZM449.89,96.43v-43.08s-6.03-11.2-18.1-11.2-23.26,11.2-23.26,32.74,11.2,32.74,23.26,32.74,18.1-11.2,18.1-11.2Z"/><path d="M485.24,33.53h11.2v6.89h.86s6.89-8.61,20.68-8.61c14.65,0,24.99,10.34,24.99,25.84v58.59h-11.2v-56c0-12.06-6.03-18.1-16.37-18.1-12.93,0-18.95,11.2-18.95,11.2v62.9h-11.2V33.53Z"/><path d="M593.84,74.89c0-27.57,15.51-43.08,35.33-43.08s27.57,14.65,27.57,14.65l-8.62,6.89s-6.03-11.2-18.95-11.2-24.13,11.2-24.13,32.74,11.2,32.74,24.13,32.74c13.79,0,19.81-12.93,19.81-12.93l9.48,6.03s-8.61,17.23-29.29,17.23-35.33-15.51-35.33-43.08Z"/><path d="M670.54,74.89c0-27.57,15.51-43.08,35.33-43.08s35.33,15.51,35.33,43.08-15.51,43.08-35.33,43.08-35.33-15.51-35.33-43.08ZM730,74.89c0-21.54-11.2-32.74-24.12-32.74s-24.13,11.2-24.13,32.74,11.2,32.74,24.13,32.74,24.12-11.2,24.12-32.74Z"/><path d="M761.9,99.01V0h11.2v99.01c0,4.31,2.59,6.9,6.89,6.9h1.73l-1.73,10.34h-1.73c-9.47,0-16.37-6.89-16.37-17.24Z"/><path d="M801.55,99.01V0h11.2v99.01c0,4.31,2.59,6.9,6.89,6.9h1.73l-1.73,10.34h-1.73c-9.47,0-16.37-6.89-16.37-17.24Z"/><path d="M836.02,74.89c0-27.57,15.51-43.08,33.6-43.08s33.6,15.51,33.6,43.08v1.72h-56c0,19.82,11.2,31.02,24.12,31.02,13.79,0,19.82-12.93,19.82-12.93l9.48,6.03s-8.62,17.23-29.3,17.23-35.33-15.51-35.33-43.08ZM892.03,66.27c-1.72-14.65-11.2-24.13-22.4-24.13s-20.68,9.48-22.4,24.13h44.8Z"/><path d="M918.76,74.89c0-27.57,15.51-43.08,35.33-43.08s27.57,14.65,27.57,14.65l-8.61,6.89s-6.03-11.2-18.96-11.2-24.12,11.2-24.12,32.74,11.2,32.74,24.12,32.74c13.79,0,19.82-12.93,19.82-12.93l9.48,6.03s-8.62,17.23-29.3,17.23-35.33-15.51-35.33-43.08Z"/><path d="M1002.37,99.01v-55.14h-10.34v-10.34h10.34V0h11.2v33.53h12.92v10.34h-12.92v55.14c0,4.31,2.58,6.9,6.89,6.9h6.89l-1.73,10.34h-6.89c-9.48,0-16.37-6.89-16.37-17.24Z"/><path d="M1047.15,0h11.2v12.06h-11.2V0ZM1047.18,33.53h11.2v82.72h-11.2V33.53Z"/><path d="M1078.21,74.89c0-27.57,15.51-43.08,35.33-43.08s35.33,15.51,35.33,43.08-15.51,43.08-35.33,43.08-35.33-15.51-35.33-43.08ZM1137.67,74.89c0-21.54-11.2-32.74-24.13-32.74s-24.12,11.2-24.12,32.74,11.2,32.74,24.12,32.74,24.13-11.2,24.13-32.74Z"/><path d="M1168.71,33.53h11.2v6.89h.86s6.89-8.61,20.68-8.61c14.65,0,24.99,10.34,24.99,25.84v58.59h-11.2v-56c0-12.06-6.03-18.1-16.37-18.1-12.92,0-18.95,11.2-18.95,11.2v62.9h-11.2V33.53Z"/></svg>