<?xml version="1.0" encoding="UTF-8"?><svg id="Layer_1" xmlns="http://www.w3.org/2000/svg" viewBox="0 0 401.53 644.61"><defs><style>.cls-1{fill:#f4f4f4;}</style></defs><path class="cls-1" d="M203.26,545.78c-13.3-15.21-19.94-37.36-19.94-66.47V165.29c0-29.09,6.64-51.24,19.94-66.47,13.29-15.21,30.9-22.82,52.83-22.82s39.53,7.61,52.83,22.82c13.29,15.22,19.94,37.37,19.94,66.47v89.28h-34.89v-89.28c0-36.36-12.64-54.56-37.88-54.56s-37.88,18.2-37.88,54.56v314.02c0,36.38,12.62,54.56,37.88,54.56s37.88-18.18,37.88-54.56v-114.08h34.89v114.08c0,29.11-6.65,51.26-19.94,66.47-13.3,15.21-30.9,22.82-52.83,22.82s-39.55-7.61-52.83-22.82Z"/><path class="cls-1" d="M198.27,98.83c-13.29-15.21-30.9-22.82-52.83-22.82s-39.53,7.61-52.83,22.82c-13.29,15.22-19.94,37.37-19.94,66.47v89.28h34.89v-89.28c0-36.36,12.64-54.56,37.88-54.56s37.88,18.2,37.88,54.56v199.93h-104.07s-6.58,0-6.58,0v114.08c0,29.11,6.65,51.26,19.94,66.47,13.3,15.21,30.9,22.82,52.83,22.82s39.55-7.61,52.83-22.82c13.3-15.21,19.94-37.36,19.94-66.47V165.29c0-29.09-6.64-51.24-19.94-66.47ZM145.44,533.87c-25.25,0-37.88-18.18-37.88-54.56v-79.36h75.77v79.36c0,36.38-12.62,54.56-37.88,54.56Z"/></svg>